<svg width="1130" height="2410" viewBox="0 0 1130 2410" fill="none" xmlns="http://www.w3.org/2000/svg">
<path d="M571.606 2C602.106 13.5 682.606 29.6 760.606 2C699.606 28.6667 583.306 122.7 606.106 285.5C628.906 448.3 869.606 592 987.106 643.5C1077.77 663.5 1216.71 660 1047.11 486C835.106 268.5 734.606 544 843.606 695.5C952.606 847 743.606 916.5 657.606 939C571.606 961.5 -222 1251.5 505 1461.5C668.833 1492 847 1624.7 249 1911.5C44.1667 1995 -309.9 2188.8 566.5 2316L657.606 2408" stroke="#279EFF" stroke-width="4"/>
</svg>
